<svg width="307" height="96" viewBox="0 0 307 96" fill="none" xmlns="http://www.w3.org/2000/svg">
<rect y="1.38037" width="52.6667" height="73.1643" rx="15" fill="black"/>
<path d="M12.7905 68.3327V7.59253H27.2381C29.8927 7.59253 32.1069 8.2549 33.8805 9.57964C35.6542 10.9044 36.9874 12.7432 37.88 15.0961C38.7727 17.4292 39.2191 20.1182 39.2191 23.1631C39.2191 25.5358 38.9372 27.6218 38.3734 29.421C37.8096 31.2005 37.0343 32.6637 36.0477 33.8105C35.0727 34.9375 33.9569 35.7382 32.7 36.2128V36.8059C34.0743 36.9048 35.3605 37.5573 36.5586 38.7634C37.7685 39.9695 38.7493 41.66 39.501 43.835C40.2527 45.9901 40.6286 48.5605 40.6286 51.5461C40.6286 54.769 40.1529 57.6458 39.2015 60.1767C38.2618 62.6877 36.8699 64.6748 35.0258 66.138C33.1816 67.6011 30.9088 68.3327 28.2072 68.3327H12.7905ZM20.4196 57.8337H26.6391C28.7651 57.8337 30.3156 57.1515 31.2905 55.7872C32.2654 54.4032 32.7529 52.5644 32.7529 50.2708C32.7529 48.5902 32.5121 47.1073 32.0305 45.8221C31.5489 44.5369 30.8618 43.5285 29.9691 42.7969C29.0881 42.0653 28.0369 41.6996 26.8153 41.6996H20.4196V57.8337ZM20.4196 33.0097H26.0753C27.1207 33.0097 28.0486 32.7032 28.8591 32.0903C29.6813 31.4576 30.3274 30.5678 30.7972 29.421C31.2788 28.2742 31.5196 26.9001 31.5196 25.2985C31.5196 23.1038 31.0556 21.3342 30.1277 19.9897C29.2115 18.6452 27.9077 17.9729 26.2162 17.9729H20.4196V33.0097Z" fill="white"/>
<rect x="105.333" width="52.6667" height="73.1643" rx="15" fill="#100F0F"/>
<path d="M151.981 27.5179H142.325C142.149 25.8448 141.789 24.3587 141.245 23.0596C140.702 21.7408 140.003 20.6189 139.151 19.6937C138.299 18.7686 137.314 18.06 136.197 17.5679C135.095 17.0759 133.897 16.8298 132.604 16.8298C130.267 16.8298 128.232 17.6073 126.497 19.1623C124.763 20.6976 123.418 22.9415 122.463 25.894C121.508 28.8268 121.03 32.3895 121.03 36.582C121.03 40.8927 121.508 44.5144 122.463 47.4473C123.433 50.3801 124.785 52.5944 126.519 54.0904C128.254 55.5863 130.26 56.3343 132.538 56.3343C133.816 56.3343 134.999 56.1079 136.087 55.6552C137.189 55.2025 138.166 54.5431 139.019 53.677C139.871 52.7913 140.577 51.7185 141.135 50.4588C141.708 49.1991 142.105 47.7622 142.325 46.1482L151.981 46.2072C151.731 48.9826 151.107 51.6595 150.107 54.238C149.123 56.7968 147.793 59.0899 146.117 61.1173C144.456 63.125 142.472 64.7194 140.165 65.9004C137.872 67.0617 135.278 67.6424 132.383 67.6424C128.356 67.6424 124.756 66.422 121.581 63.9813C118.422 61.5405 115.923 58.0074 114.086 53.3818C112.264 48.7562 111.353 43.1563 111.353 36.582C111.353 29.9881 112.278 24.3784 114.13 19.7528C115.982 15.1272 118.495 11.6039 121.67 9.18283C124.844 6.7421 128.415 5.52173 132.383 5.52173C134.999 5.52173 137.424 6.01381 139.658 6.99798C141.907 7.98215 143.898 9.41903 145.632 11.3086C147.366 13.1785 148.777 15.4717 149.865 18.188C150.967 20.9043 151.672 24.0142 151.981 27.5179Z" fill="white"/>
<rect width="52.5858" height="73.2975" rx="15" transform="matrix(0.991791 0.127873 -0.151429 0.988468 59.0103 0.823486)" fill="#100F0F"/>
<path d="M99.3161 11.9112L89.8921 73.4273L83.548 72.6093L74.3655 31.9428L74.1111 31.91L68.1797 70.6279L60.8348 69.6809L70.2588 8.16479L76.7047 8.99587L85.773 49.6171L86.0783 49.6564L92.0051 10.9686L99.3161 11.9112Z" fill="white"/>
<path d="M166.762 64.4688H169.943C170.596 64.4688 171.156 64.5664 171.625 64.7617C172.098 64.957 172.461 65.2461 172.715 65.6289C172.969 66.0117 173.096 66.4824 173.096 67.041C173.096 67.498 173.018 67.8906 172.861 68.2188C172.709 68.543 172.492 68.8145 172.211 69.0332C171.934 69.248 171.607 69.4199 171.232 69.5488L170.676 69.8418H167.91L167.898 68.4707H169.955C170.264 68.4707 170.52 68.416 170.723 68.3066C170.926 68.1973 171.078 68.0449 171.18 67.8496C171.285 67.6543 171.338 67.4277 171.338 67.1699C171.338 66.8965 171.287 66.6602 171.186 66.4609C171.084 66.2617 170.93 66.1094 170.723 66.0039C170.516 65.8984 170.256 65.8457 169.943 65.8457H168.52V73H166.762V64.4688ZM171.531 73L169.586 69.1973L171.443 69.1855L173.412 72.918V73H171.531ZM177.766 71.5703V68.7461C177.766 68.543 177.732 68.3691 177.666 68.2246C177.6 68.0762 177.496 67.9609 177.355 67.8789C177.219 67.7969 177.041 67.7559 176.822 67.7559C176.635 67.7559 176.473 67.7891 176.336 67.8555C176.199 67.918 176.094 68.0098 176.02 68.1309C175.945 68.248 175.908 68.3867 175.908 68.5469H174.221C174.221 68.2773 174.283 68.0215 174.408 67.7793C174.533 67.5371 174.715 67.3242 174.953 67.1406C175.191 66.9531 175.475 66.8066 175.803 66.7012C176.135 66.5957 176.506 66.543 176.916 66.543C177.408 66.543 177.846 66.625 178.229 66.7891C178.611 66.9531 178.912 67.1992 179.131 67.5273C179.354 67.8555 179.465 68.2656 179.465 68.7578V71.4707C179.465 71.8184 179.486 72.1035 179.529 72.3262C179.572 72.5449 179.635 72.7363 179.717 72.9004V73H178.012C177.93 72.8281 177.867 72.6133 177.824 72.3555C177.785 72.0938 177.766 71.832 177.766 71.5703ZM177.988 69.1387L178 70.0938H177.057C176.834 70.0938 176.641 70.1191 176.477 70.1699C176.312 70.2207 176.178 70.293 176.072 70.3867C175.967 70.4766 175.889 70.582 175.838 70.7031C175.791 70.8242 175.768 70.957 175.768 71.1016C175.768 71.2461 175.801 71.377 175.867 71.4941C175.934 71.6074 176.029 71.6973 176.154 71.7637C176.279 71.8262 176.426 71.8574 176.594 71.8574C176.848 71.8574 177.068 71.8066 177.256 71.7051C177.443 71.6035 177.588 71.4785 177.689 71.3301C177.795 71.1816 177.85 71.041 177.854 70.9082L178.299 71.623C178.236 71.7832 178.15 71.9492 178.041 72.1211C177.936 72.293 177.801 72.4551 177.637 72.6074C177.473 72.7559 177.275 72.8789 177.045 72.9766C176.814 73.0703 176.541 73.1172 176.225 73.1172C175.822 73.1172 175.457 73.0371 175.129 72.877C174.805 72.7129 174.547 72.4883 174.355 72.2031C174.168 71.9141 174.074 71.5859 174.074 71.2188C174.074 70.8867 174.137 70.5918 174.262 70.334C174.387 70.0762 174.57 69.8594 174.812 69.6836C175.059 69.5039 175.365 69.3691 175.732 69.2793C176.1 69.1855 176.525 69.1387 177.01 69.1387H177.988ZM182.916 73H181.217V66.0977C181.217 65.6172 181.311 65.2129 181.498 64.8848C181.689 64.5527 181.957 64.3027 182.301 64.1348C182.648 63.9629 183.061 63.877 183.537 63.877C183.693 63.877 183.844 63.8887 183.988 63.9121C184.133 63.9316 184.273 63.957 184.41 63.9883L184.393 65.2598C184.318 65.2402 184.24 65.2266 184.158 65.2188C184.076 65.2109 183.98 65.207 183.871 65.207C183.668 65.207 183.494 65.2422 183.35 65.3125C183.209 65.3789 183.102 65.4785 183.027 65.6113C182.953 65.7441 182.916 65.9062 182.916 66.0977V73ZM184.182 66.6602V67.8555H180.273V66.6602H184.182ZM188.488 71.5703V68.7461C188.488 68.543 188.455 68.3691 188.389 68.2246C188.322 68.0762 188.219 67.9609 188.078 67.8789C187.941 67.7969 187.764 67.7559 187.545 67.7559C187.357 67.7559 187.195 67.7891 187.059 67.8555C186.922 67.918 186.816 68.0098 186.742 68.1309C186.668 68.248 186.631 68.3867 186.631 68.5469H184.943C184.943 68.2773 185.006 68.0215 185.131 67.7793C185.256 67.5371 185.438 67.3242 185.676 67.1406C185.914 66.9531 186.197 66.8066 186.525 66.7012C186.857 66.5957 187.229 66.543 187.639 66.543C188.131 66.543 188.568 66.625 188.951 66.7891C189.334 66.9531 189.635 67.1992 189.854 67.5273C190.076 67.8555 190.188 68.2656 190.188 68.7578V71.4707C190.188 71.8184 190.209 72.1035 190.252 72.3262C190.295 72.5449 190.357 72.7363 190.439 72.9004V73H188.734C188.652 72.8281 188.59 72.6133 188.547 72.3555C188.508 72.0938 188.488 71.832 188.488 71.5703ZM188.711 69.1387L188.723 70.0938H187.779C187.557 70.0938 187.363 70.1191 187.199 70.1699C187.035 70.2207 186.9 70.293 186.795 70.3867C186.689 70.4766 186.611 70.582 186.561 70.7031C186.514 70.8242 186.49 70.957 186.49 71.1016C186.49 71.2461 186.523 71.377 186.59 71.4941C186.656 71.6074 186.752 71.6973 186.877 71.7637C187.002 71.8262 187.148 71.8574 187.316 71.8574C187.57 71.8574 187.791 71.8066 187.979 71.7051C188.166 71.6035 188.311 71.4785 188.412 71.3301C188.518 71.1816 188.572 71.041 188.576 70.9082L189.021 71.623C188.959 71.7832 188.873 71.9492 188.764 72.1211C188.658 72.293 188.523 72.4551 188.359 72.6074C188.195 72.7559 187.998 72.8789 187.768 72.9766C187.537 73.0703 187.264 73.1172 186.947 73.1172C186.545 73.1172 186.18 73.0371 185.852 72.877C185.527 72.7129 185.27 72.4883 185.078 72.2031C184.891 71.9141 184.797 71.5859 184.797 71.2188C184.797 70.8867 184.859 70.5918 184.984 70.334C185.109 70.0762 185.293 69.8594 185.535 69.6836C185.781 69.5039 186.088 69.3691 186.455 69.2793C186.822 69.1855 187.248 69.1387 187.732 69.1387H188.711ZM194.318 67.4043V68.3477L191.008 69.4434V68.5L194.318 67.4043ZM193.486 64V73H191.787V64H193.486ZM198.262 64.4688H201.443C202.096 64.4688 202.656 64.5664 203.125 64.7617C203.598 64.957 203.961 65.2461 204.215 65.6289C204.469 66.0117 204.596 66.4824 204.596 67.041C204.596 67.498 204.518 67.8906 204.361 68.2188C204.209 68.543 203.992 68.8145 203.711 69.0332C203.434 69.248 203.107 69.4199 202.732 69.5488L202.176 69.8418H199.41L199.398 68.4707H201.455C201.764 68.4707 202.02 68.416 202.223 68.3066C202.426 68.1973 202.578 68.0449 202.68 67.8496C202.785 67.6543 202.838 67.4277 202.838 67.1699C202.838 66.8965 202.787 66.6602 202.686 66.4609C202.584 66.2617 202.43 66.1094 202.223 66.0039C202.016 65.8984 201.756 65.8457 201.443 65.8457H200.02V73H198.262V64.4688ZM203.031 73L201.086 69.1973L202.943 69.1855L204.912 72.918V73H203.031ZM209.594 71.4824V66.6602H211.281V73H209.693L209.594 71.4824ZM209.781 70.1816L210.279 70.1699C210.279 70.5918 210.23 70.9844 210.133 71.3477C210.035 71.707 209.889 72.0195 209.693 72.2852C209.498 72.5469 209.252 72.752 208.955 72.9004C208.658 73.0449 208.309 73.1172 207.906 73.1172C207.598 73.1172 207.312 73.0742 207.051 72.9883C206.793 72.8984 206.57 72.7598 206.383 72.5723C206.199 72.3809 206.055 72.1367 205.949 71.8398C205.848 71.5391 205.797 71.1777 205.797 70.7559V66.6602H207.484V70.7676C207.484 70.9551 207.506 71.1133 207.549 71.2422C207.596 71.3711 207.66 71.4766 207.742 71.5586C207.824 71.6406 207.92 71.6992 208.029 71.7344C208.143 71.7695 208.268 71.7871 208.404 71.7871C208.752 71.7871 209.025 71.7168 209.225 71.5762C209.428 71.4355 209.57 71.2441 209.652 71.002C209.738 70.7559 209.781 70.4824 209.781 70.1816ZM216.314 71.6172V64H218.014V73H216.484L216.314 71.6172ZM212.307 69.9062V69.7832C212.307 69.2988 212.361 68.8594 212.471 68.4648C212.58 68.0664 212.74 67.7246 212.951 67.4395C213.162 67.1543 213.422 66.9336 213.73 66.7773C214.039 66.6211 214.391 66.543 214.785 66.543C215.156 66.543 215.48 66.6211 215.758 66.7773C216.039 66.9336 216.277 67.1562 216.473 67.4453C216.672 67.7305 216.832 68.0684 216.953 68.459C217.074 68.8457 217.162 69.2695 217.217 69.7305V70C217.162 70.4414 217.074 70.8516 216.953 71.2305C216.832 71.6094 216.672 71.9414 216.473 72.2266C216.277 72.5078 216.039 72.7266 215.758 72.8828C215.477 73.0391 215.148 73.1172 214.773 73.1172C214.379 73.1172 214.027 73.0371 213.719 72.877C213.414 72.7168 213.156 72.4922 212.945 72.2031C212.738 71.9141 212.58 71.5742 212.471 71.1836C212.361 70.793 212.307 70.3672 212.307 69.9062ZM213.994 69.7832V69.9062C213.994 70.168 214.014 70.4121 214.053 70.6387C214.096 70.8652 214.164 71.0664 214.258 71.2422C214.355 71.4141 214.48 71.5488 214.633 71.6465C214.789 71.7402 214.979 71.7871 215.201 71.7871C215.49 71.7871 215.729 71.7227 215.916 71.5938C216.104 71.4609 216.246 71.2793 216.344 71.0488C216.445 70.8184 216.504 70.5527 216.52 70.252V69.4844C216.508 69.2383 216.473 69.0176 216.414 68.8223C216.359 68.623 216.277 68.4531 216.168 68.3125C216.062 68.1719 215.93 68.0625 215.77 67.9844C215.613 67.9062 215.428 67.8672 215.213 67.8672C214.994 67.8672 214.807 67.918 214.65 68.0195C214.494 68.1172 214.367 68.252 214.27 68.4238C214.176 68.5957 214.105 68.7988 214.059 69.0332C214.016 69.2637 213.994 69.5137 213.994 69.7832ZM220.984 68.0137V73H219.297V66.6602H220.879L220.984 68.0137ZM220.738 69.6074H220.281C220.281 69.1387 220.342 68.7168 220.463 68.3418C220.584 67.9629 220.754 67.6406 220.973 67.375C221.191 67.1055 221.451 66.9004 221.752 66.7598C222.057 66.6152 222.396 66.543 222.771 66.543C223.068 66.543 223.34 66.5859 223.586 66.6719C223.832 66.7578 224.043 66.8945 224.219 67.082C224.398 67.2695 224.535 67.5176 224.629 67.8262C224.727 68.1348 224.775 68.5117 224.775 68.957V73H223.076V68.9512C223.076 68.6699 223.037 68.4512 222.959 68.2949C222.881 68.1387 222.766 68.0293 222.613 67.9668C222.465 67.9004 222.281 67.8672 222.062 67.8672C221.836 67.8672 221.639 67.9121 221.471 68.002C221.307 68.0918 221.17 68.2168 221.061 68.377C220.955 68.5332 220.875 68.7168 220.82 68.9277C220.766 69.1387 220.738 69.3652 220.738 69.6074ZM227.84 66.6602V73H226.146V66.6602H227.84ZM226.041 65.0078C226.041 64.7617 226.127 64.5586 226.299 64.3984C226.471 64.2383 226.701 64.1582 226.99 64.1582C227.275 64.1582 227.504 64.2383 227.676 64.3984C227.852 64.5586 227.939 64.7617 227.939 65.0078C227.939 65.2539 227.852 65.457 227.676 65.6172C227.504 65.7773 227.275 65.8574 226.99 65.8574C226.701 65.8574 226.471 65.7773 226.299 65.6172C226.127 65.457 226.041 65.2539 226.041 65.0078ZM230.922 63.9941V73H229.234V63.9941H230.922ZM234.918 66.6602L232.164 69.8008L230.688 71.2949L230.072 70.0762L231.244 68.5879L232.891 66.6602H234.918ZM233.166 73L231.291 70.0703L232.457 69.0508L235.111 73H233.166Z" fill="black"/>
</svg>
